<svg width="22" height="22" viewBox="0 0 22 22" fill="none" xmlns="http://www.w3.org/2000/svg">
<circle cx="11" cy="11" r="10" fill="#01BD2A" stroke="#F2F2F2" stroke-width="2"/>
<path fill-rule="evenodd" clip-rule="evenodd" d="M10.2001 16.6001C10.2001 16.8123 10.2844 17.0158 10.4344 17.1658C10.5844 17.3158 10.7879 17.4001 11.0001 17.4001C11.2123 17.4001 11.4158 17.3158 11.5658 17.1658C11.7158 17.0158 11.8001 16.8123 11.8001 16.6001V11.8001H16.6001C16.8123 11.8001 17.0158 11.7158 17.1658 11.5658C17.3158 11.4158 17.4001 11.2123 17.4001 11.0001C17.4001 10.7879 17.3158 10.5844 17.1658 10.4344C17.0158 10.2844 16.8123 10.2001 16.6001 10.2001H11.8001V5.4001C11.8001 5.18792 11.7158 4.98444 11.5658 4.83441C11.4158 4.68438 11.2123 4.6001 11.0001 4.6001C10.7879 4.6001 10.5844 4.68438 10.4344 4.83441C10.2844 4.98444 10.2001 5.18792 10.2001 5.4001V10.2001H5.4001C5.18792 10.2001 4.98444 10.2844 4.83441 10.4344C4.68438 10.5844 4.6001 10.7879 4.6001 11.0001C4.6001 11.2123 4.68438 11.4158 4.83441 11.5658C4.98444 11.7158 5.18792 11.8001 5.4001 11.8001H10.2001V16.6001Z" fill="#F2F2F2"/>
</svg>
