<svg width="24" height="24" viewBox="0 0 24 24" fill="none" xmlns="http://www.w3.org/2000/svg">
<path fill-rule="evenodd" clip-rule="evenodd" d="M10.0002 2.25C9.30185 2.25 8.699 2.65912 8.41829 3.25077C7.73475 3.25574 7.20201 3.28712 6.72646 3.47298C6.15827 3.69505 5.66406 4.07255 5.30034 4.5623C4.93341 5.05639 4.76116 5.68968 4.52409 6.56133L4.4777 6.73169L3.96497 9.69473C3.77944 9.82272 3.6183 9.97428 3.47816 10.1538C2.57733 11.3075 3.0063 13.0234 3.86425 16.4552C4.40992 18.6379 4.68276 19.7292 5.49654 20.3646C6.31032 21 7.43525 21 9.68511 21H14.3158C16.5657 21 17.6906 21 18.5044 20.3646C19.3181 19.7292 19.591 18.6379 20.1367 16.4552C20.9946 13.0234 21.4236 11.3075 20.5227 10.1538C20.3825 9.97414 20.2212 9.82247 20.0355 9.69442L19.5228 6.73169L19.4764 6.56133C19.2393 5.68968 19.0671 5.05639 18.7002 4.5623C18.3365 4.07255 17.8422 3.69505 17.2741 3.47298C16.7985 3.28712 16.2658 3.25574 15.5822 3.25077C15.3015 2.65912 14.6987 2.25 14.0003 2.25H10.0002ZM18.4182 9.14571L18.0569 7.05765C17.7731 6.01794 17.6701 5.69121 17.4959 5.45663C17.3001 5.19291 17.034 4.98964 16.728 4.87007C16.5082 4.78416 16.2426 4.75888 15.5808 4.75219C15.2995 5.34225 14.6975 5.75 14.0003 5.75H10.0002C9.30301 5.75 8.70101 5.34225 8.4197 4.75219C7.75787 4.75888 7.49229 4.78416 7.27249 4.87007C6.96654 4.98964 6.70043 5.19291 6.50458 5.45662C6.33037 5.6912 6.22737 6.01794 5.94359 7.05765L5.58225 9.14577C6.58041 9 7.91009 9 9.68511 9H14.3158C16.0906 9 17.4201 9 18.4182 9.14571ZM8.00049 12.25C8.4147 12.25 8.75049 12.5858 8.75049 13V17C8.75049 17.4142 8.4147 17.75 8.00049 17.75C7.58628 17.75 7.25049 17.4142 7.25049 17V13C7.25049 12.5858 7.58628 12.25 8.00049 12.25ZM16.7505 13C16.7505 12.5858 16.4147 12.25 16.0005 12.25C15.5863 12.25 15.2505 12.5858 15.2505 13V17C15.2505 17.4142 15.5863 17.75 16.0005 17.75C16.4147 17.75 16.7505 17.4142 16.7505 17V13ZM12.0005 12.25C12.4147 12.25 12.7505 12.5858 12.7505 13V17C12.7505 17.4142 12.4147 17.75 12.0005 17.75C11.5863 17.75 11.2505 17.4142 11.2505 17V13C11.2505 12.5858 11.5863 12.25 12.0005 12.25Z" fill="white"/>
</svg>
