<svg width="60" height="60" viewBox="0 0 60 60" fill="none" xmlns="http://www.w3.org/2000/svg">
<rect width="60" height="60" rx="20" fill="#28A745"/>
<path d="M32.0417 14.8545V18.7087C32.0417 22.3424 32.0417 24.1593 33.1705 25.2881C34.2994 26.417 36.1163 26.417 39.75 26.417H45.9167" stroke="white" stroke-width="2"/>
<path d="M25.1042 31.8125V39.5208M25.1042 39.5208L28.1875 36.6302M25.1042 39.5208L22.0208 36.6302" stroke="white" stroke-width="2" stroke-linecap="round" stroke-linejoin="round"/>
<path d="M16.2396 26.4164C16.2396 25.7778 15.7219 25.2602 15.0833 25.2602C14.4448 25.2602 13.9271 25.7778 13.9271 26.4164H16.2396ZM44.7604 32.5831C44.7604 33.2216 45.2781 33.7393 45.9167 33.7393C46.5552 33.7393 47.0729 33.2216 47.0729 32.5831H44.7604ZM14.0891 20.1366C14.0266 20.7721 14.4911 21.3379 15.1266 21.4005C15.7621 21.463 16.328 20.9984 16.3905 20.3629L14.0891 20.1366ZM46.9109 38.8629C46.9735 38.2274 46.5088 37.6615 45.8733 37.5991C45.2379 37.5366 44.6721 38.0011 44.6095 38.6366L46.9109 38.8629ZM33.5833 43.7602H27.4167V46.0727H33.5833V43.7602ZM16.2396 32.5831V26.4164H13.9271V32.5831H16.2396ZM44.7604 31.9092V32.5831H47.0729V31.9092H44.7604ZM34.9573 18.1086L41.0604 23.6014L42.6073 21.8825L36.5043 16.3897L34.9573 18.1086ZM47.0729 31.9092C47.0729 29.3063 47.0962 27.6582 46.4394 26.1836L44.3271 27.1244C44.7371 28.0452 44.7604 29.102 44.7604 31.9092H47.0729ZM41.0604 23.6014C43.1469 25.4792 43.917 26.2037 44.3271 27.1244L46.4394 26.1836C45.7827 24.7089 44.5421 23.6237 42.6073 21.8825L41.0604 23.6014ZM27.4626 15.2393C29.9012 15.2393 30.8214 15.2572 31.6416 15.5719L32.4701 13.4129C31.1569 12.909 29.7261 12.9268 27.4626 12.9268V15.2393ZM36.5043 16.3897C34.8301 14.8829 33.7833 13.9168 32.4701 13.4129L31.6416 15.5719C32.4621 15.8867 33.154 16.4856 34.9573 18.1086L36.5043 16.3897ZM27.4167 43.7602C24.477 43.7602 22.3885 43.7577 20.8042 43.5446C19.2532 43.3362 18.3595 42.9451 17.7071 42.2927L16.0719 43.9279C17.2256 45.0815 18.6886 45.5935 20.4961 45.8366C22.2703 46.0751 24.5423 46.0727 27.4167 46.0727V43.7602ZM13.9271 32.5831C13.9271 35.4574 13.9246 37.7295 14.1632 39.5036C14.4062 41.3111 14.9182 42.7741 16.0719 43.9279L17.7071 42.2927C17.0546 41.6402 16.6636 40.7465 16.455 39.1956C16.242 37.6112 16.2396 35.5227 16.2396 32.5831H13.9271ZM33.5833 46.0727C36.4576 46.0727 38.7297 46.0751 40.5039 45.8366C42.3113 45.5935 43.7744 45.0815 44.9281 43.9279L43.2929 42.2927C42.6405 42.9451 41.7468 43.3362 40.1958 43.5446C38.6115 43.7577 36.523 43.7602 33.5833 43.7602V46.0727ZM27.4626 12.9268C24.5729 12.9268 22.2897 12.9244 20.5083 13.1628C18.6944 13.4056 17.2265 13.917 16.0719 15.0717L17.7071 16.7068C18.3586 16.0553 19.255 15.6637 20.815 15.4549C22.4074 15.2418 24.5077 15.2393 27.4626 15.2393V12.9268ZM16.3905 20.3629C16.5777 18.46 16.9803 17.4337 17.7071 16.7068L16.0719 15.0717C14.7848 16.3588 14.2962 18.0309 14.0891 20.1366L16.3905 20.3629ZM44.6095 38.6366C44.4223 40.5395 44.0196 41.5658 43.2929 42.2927L44.9281 43.9279C46.2153 42.6406 46.7038 40.9687 46.9109 38.8629L44.6095 38.6366Z" fill="white"/>
</svg>
