<svg width="26" height="26" viewBox="0 0 26 26" fill="none" xmlns="http://www.w3.org/2000/svg">
<path d="M13 2.4375C7.16625 2.4375 2.4375 7.16625 2.4375 13C2.4375 18.8337 7.16625 23.5625 13 23.5625C18.8337 23.5625 23.5625 18.8337 23.5625 13C23.5625 7.16625 18.8337 2.4375 13 2.4375ZM14.6567 16.8862C13.8596 18.083 13.0487 19.0052 11.6846 19.0052C10.7534 18.8533 10.3707 18.1862 10.5723 17.5061L12.3272 11.6935C12.3703 11.5513 12.2988 11.3994 12.1688 11.3531C12.0396 11.3076 11.7861 11.4757 11.5667 11.7163L10.5056 12.9927C10.4772 12.7782 10.5024 12.4239 10.5024 12.2809C11.2994 11.0841 12.6092 10.14 13.4972 10.14C14.3414 10.2261 14.7412 10.9013 14.5941 11.6431L12.8269 17.4842C12.8034 17.6158 12.8733 17.7499 12.9927 17.7921C13.1227 17.8376 13.3957 17.6694 13.6159 17.4289L14.6762 16.1533C14.7046 16.3678 14.6567 16.7432 14.6567 16.8862ZM14.4202 9.29419C13.7491 9.29419 13.2048 8.80506 13.2048 8.08519C13.2048 7.36531 13.7491 6.877 14.4202 6.877C15.0914 6.877 15.6357 7.36613 15.6357 8.08519C15.6357 8.80588 15.0914 9.29419 14.4202 9.29419Z" fill="#6D6E71"/>
</svg>
