<svg width="40" height="40" viewBox="0 0 40 40" fill="none" xmlns="http://www.w3.org/2000/svg">
<rect width="40" height="40" rx="20" fill="#28A745"/>
<path fill-rule="evenodd" clip-rule="evenodd" d="M19.25 29.25C19.25 29.5815 19.3817 29.8995 19.6161 30.1339C19.8505 30.3683 20.1685 30.5 20.5 30.5C20.8315 30.5 21.1495 30.3683 21.3839 30.1339C21.6183 29.8995 21.75 29.5815 21.75 29.25V21.75H29.25C29.5815 21.75 29.8995 21.6183 30.1339 21.3839C30.3683 21.1495 30.5 20.8315 30.5 20.5C30.5 20.1685 30.3683 19.8505 30.1339 19.6161C29.8995 19.3817 29.5815 19.25 29.25 19.25H21.75V11.75C21.75 11.4185 21.6183 11.1005 21.3839 10.8661C21.1495 10.6317 20.8315 10.5 20.5 10.5C20.1685 10.5 19.8505 10.6317 19.6161 10.8661C19.3817 11.1005 19.25 11.4185 19.25 11.75V19.25H11.75C11.4185 19.25 11.1005 19.3817 10.8661 19.6161C10.6317 19.8505 10.5 20.1685 10.5 20.5C10.5 20.8315 10.6317 21.1495 10.8661 21.3839C11.1005 21.6183 11.4185 21.75 11.75 21.75H19.25V29.25Z" fill="#F2F2F2"/>
</svg>
